<svg preserveAspectRatio="none" overflow="visible" style="display: block;" width="65.8214" height="71.0022" viewBox="0 0 65.8214 71.0022" fill="none" xmlns="http://www.w3.org/2000/svg">
<g id="arrow right">
<path id="arrow right_2" d="M28.9444 65.1109C27.6236 66.5223 27.6972 68.7372 29.1086 70.0579C30.5201 71.3786 32.7349 71.3051 34.0556 69.8936L31.5 67.5022L28.9444 65.1109ZM31.5683 67.4292L31.2598 63.9428L29.9269 64.0608L29.0127 65.0378L31.5683 67.4292ZM32.3526 66.862L35.8503 66.7349L32.3526 66.862ZM32.4387 65.984L35.8153 66.9052L32.4387 65.984ZM34.0394 64.6057L35.2068 67.9053L34.0394 64.6057ZM35.5003 64.0554L36.769 67.3174L35.5003 64.0554ZM35.8075 63.3842L32.3259 63.7429L35.8075 63.3842ZM36.5155 62.1294L39.8063 60.9375L36.5155 62.1294ZM37.6342 61.2588L37.7656 57.7613L37.6342 61.2588ZM37.9985 60.6411L41.3812 59.7428L37.9985 60.6411ZM39.2472 59.8922L42.6047 60.8806L39.2472 59.8922ZM41.1192 56.8505L41.4737 60.3325L41.1192 56.8505ZM42.0008 56.7168L42.7086 60.1445L42.0008 56.7168ZM42.3305 56.0667L38.8743 56.6183L42.3305 56.0667ZM43.7039 54.4758L43.3682 57.9597L43.7039 54.4758ZM44.7768 53.5624L41.958 51.4878L44.7768 53.5624ZM45.2849 52.1205L42.3418 50.2262L45.2849 52.1205ZM46.4791 51.3207L44.0663 48.7853L46.4791 51.3207ZM46.9292 50.7831L44.0116 48.8498L46.9292 50.7831ZM47.6648 50.5128L47.4994 54.0089L47.6648 50.5128ZM48.0847 49.9471L44.6542 50.6409L48.0847 49.9471ZM48.8288 48.726L45.4166 49.5051L48.8288 48.726ZM49.1111 48.0315L49.8024 51.4626L49.1111 48.0315ZM50.8354 47.7277L52.3712 50.8727L50.8354 47.7277ZM51.4471 46.3827L52.2803 42.9833L51.4471 46.3827ZM52.1182 45.0933L48.6445 44.6652L52.1182 45.0933ZM52.4649 44.4591L54.4644 47.3318L52.4649 44.4591ZM53.7106 43.7074L50.5312 42.244L53.7106 43.7074ZM54.0192 43.0375L57.1975 44.5032L54.0192 43.0375ZM55.7532 41.7841L52.7986 39.9079L55.7532 41.7841ZM56.0327 41.087L59.4485 41.8502L56.0327 41.087ZM56.8812 39.9636L59.2469 42.5431L56.8812 39.9636ZM58.2214 38.3416L61.4198 39.763L58.2214 38.3416ZM58.6235 37.7592L56.1877 35.2459L58.6235 37.7592ZM59.4986 37.6195L58.9221 41.0717L59.4986 37.6195ZM60.4247 37.5273L62.3302 40.4631H62.3302L60.4247 37.5273ZM60.8658 36.0228L64.3363 36.4761L60.8658 36.0228ZM61.4477 35.6086L61.3615 39.1075L61.4477 35.6086ZM61.4277 33.7792L62.0249 30.3306L61.4277 33.7792ZM60.8605 33.3568L64.0904 32.0085H64.0904L60.8605 33.3568ZM58.0696 30.2072L61.3902 29.1008L58.0696 30.2072ZM57.822 29.4638L54.5013 30.5695L57.822 29.4638ZM57.118 29.1788L57.6351 32.6404L57.118 29.1788ZM56.359 28.9489L59.4072 27.2288L56.359 28.9489ZM55.4631 26.8725L52.8527 29.2039L55.4631 26.8725ZM54.7613 26.5852L54.5693 30.08L54.7613 26.5852ZM54.0378 26.3197L56.4347 23.7693L54.0378 26.3197ZM52.0334 24.3644L48.5708 24.8751L52.0334 24.3644ZM51.9518 23.4543L48.4543 23.5847L51.9518 23.4543ZM51.434 22.9823L51.3912 19.4825L51.434 22.9823ZM50.6701 22.7574L48.3647 25.3908L50.6701 22.7574ZM49.7074 21.74L53.1261 22.4899L49.7074 21.74ZM49.579 20.8769L47.3167 23.5475L49.579 20.8769ZM49.0313 20.4349L51.1642 17.6599L49.0313 20.4349ZM48.6154 19.8605L51.8886 18.621L48.6154 19.8605ZM47.4142 19.0827L43.9312 18.7388L47.4142 19.0827ZM42.494 15.0953L40.3623 17.8713L42.494 15.0953ZM42.1239 14.4749L45.5404 13.7149L42.1239 14.4749ZM41.2208 13.3977L40.2066 16.7476L41.2208 13.3977ZM38.9614 11.6985L41.8984 9.79484L38.9614 11.6985ZM38.6765 10.9926L42.0931 10.233L38.6765 10.9926ZM37.4652 10.2249L40.8188 9.22355L37.4652 10.2249ZM37.1858 9.51346L40.3145 7.94462L37.1858 9.51346ZM36.668 9.04139L35.3584 12.2871L36.668 9.04139ZM35.9822 8.73806L34.4593 11.8894L35.9822 8.73806ZM35.4306 7.30791L31.9455 6.98478L35.4306 7.30791ZM34.6865 6.07106L34.4753 9.56468L34.6865 6.07106ZM33.1919 5.58791L29.6925 5.52294L33.1919 5.58791ZM32.1755 4.62444L31.0586 7.94144L32.1755 4.62444ZM31.8107 3.99884L35.3105 4.03383L31.8107 3.99884ZM31.6578 3.50001L31.6087 0.000362158L30.3653 0.0178258L29.4117 0.815853L31.6578 3.50001ZM31.5709 3.5728L29.1012 6.05284L31.3659 8.30812L33.817 6.25695L31.5709 3.5728ZM33.9697 1.02219C32.6 -0.341786 30.3839 -0.337155 29.02 1.03254C27.656 2.40223 27.6606 4.6183 29.0303 5.98228L31.5 3.50223L33.9697 1.02219ZM31.5 67.5022L34.0556 69.8936L34.124 69.8206L31.5683 67.4292L29.0127 65.0378L28.9444 65.1109L31.5 67.5022ZM31.5683 67.4292L31.8768 70.9156C32.4014 70.8692 33.3389 70.7227 34.2166 70.0879C35.323 69.2878 35.8974 68.031 35.8503 66.7349L32.3526 66.862L28.8549 66.9891C28.8404 66.5898 28.9064 66.0871 29.1547 65.5697C29.4046 65.0486 29.7644 64.6691 30.1144 64.4159C30.4459 64.1762 30.7464 64.064 30.9221 64.0119C31.1008 63.9588 31.2243 63.946 31.2598 63.9428L31.5683 67.4292ZM32.3526 66.862L35.8503 66.7349C35.8492 66.7068 35.8511 66.7088 35.8484 66.7361C35.8457 66.7637 35.8379 66.8225 35.8153 66.9052L32.4387 65.984L29.0621 65.0627C28.8794 65.7326 28.8331 66.3906 28.8549 66.9891L32.3526 66.862ZM32.4387 65.984L35.8153 66.9052C35.6902 67.3637 35.4125 67.8955 34.9092 68.3293C34.4243 68.7472 33.922 68.9091 33.5963 68.9682L32.972 65.5243L32.3477 62.0804C31.736 62.1913 31.0017 62.4559 30.3391 63.027C29.658 63.614 29.2567 64.3496 29.0621 65.0627L32.4387 65.984ZM32.972 65.5243L33.5963 68.9682C34.8765 68.7361 36.2162 67.9052 36.8107 66.323L33.5344 65.0919L30.2581 63.8607C30.4269 63.4113 30.7345 62.9558 31.1937 62.6027C31.6326 62.2652 32.0656 62.1316 32.3477 62.0804L32.972 65.5243ZM33.5344 65.0919L36.8107 66.323C36.6869 66.6526 36.4758 67.0053 36.1547 67.3144C35.8367 67.6206 35.4946 67.8035 35.2068 67.9053L34.0394 64.6057L32.872 61.3062C31.696 61.7222 30.7269 62.6131 30.2581 63.8607L33.5344 65.0919ZM34.0394 64.6057L35.2068 67.9053C35.4818 67.808 35.7543 67.7078 36.0244 67.6045L34.7748 64.3352L33.5251 61.0659C33.3103 61.148 33.0926 61.2281 32.872 61.3062L34.0394 64.6057ZM34.7748 64.3352L36.0244 67.6045C36.2732 67.5094 36.5214 67.4137 36.769 67.3174L35.5003 64.0554L34.2316 60.7935C33.9967 60.8848 33.7612 60.9756 33.5251 61.0659L34.7748 64.3352ZM35.5003 64.0554L36.769 67.3174C37.6893 66.9595 38.4892 66.2599 38.9405 65.2739C39.3421 64.3965 39.3445 63.5635 39.2891 63.0256L35.8075 63.3842L32.3259 63.7429C32.307 63.5586 32.2764 63.0143 32.5755 62.3607C32.9244 61.5984 33.5526 61.0576 34.2316 60.7935L35.5003 64.0554ZM35.8075 63.3842L39.2891 63.0256C39.3185 63.3112 39.3627 64.3259 38.5432 65.2745C37.6932 66.2585 36.6281 66.3544 36.2632 66.3541L36.2655 62.8541L36.2678 59.3541C35.5611 59.3536 34.2489 59.5377 33.2461 60.6984C32.274 61.8238 32.2601 63.1037 32.3259 63.7429L35.8075 63.3842ZM36.2655 62.8541L36.2632 66.3541C36.7259 66.3544 37.4519 66.2781 38.2014 65.8526C39.0314 65.3814 39.6081 64.6402 39.8929 63.8146C40.3543 62.4774 39.9344 61.2913 39.8063 60.9375L36.5155 62.1294L33.2247 63.3213C33.2129 63.2888 33.1572 63.1323 33.126 62.8859C33.0971 62.6572 33.0628 62.1488 33.2757 61.5316C33.5188 60.8268 34.0216 60.1762 34.7453 59.7653C35.3885 59.4001 35.976 59.3539 36.2678 59.3541L36.2655 62.8541ZM36.5155 62.1294L39.8063 60.9375C39.8132 60.9566 39.8531 61.0679 39.8825 61.25C39.9098 61.4196 39.9501 61.7826 39.8568 62.2498C39.7559 62.7558 39.494 63.3852 38.9381 63.9217C38.3924 64.4483 37.7854 64.6711 37.3477 64.7566L36.6767 61.3216L36.0056 57.8865C35.4267 57.9996 34.7071 58.2768 34.0773 58.8845C33.4373 59.5021 33.12 60.2394 32.9922 60.8801C32.7723 61.982 33.08 62.9218 33.2247 63.3213L36.5155 62.1294ZM36.6767 61.3216L37.3477 64.7566C37.328 64.7605 37.3296 64.7588 37.3568 64.757C37.3839 64.7552 37.4317 64.7537 37.5027 64.7564L37.6342 61.2588L37.7656 57.7613C37.2014 57.7401 36.6059 57.7692 36.0056 57.8865L36.6767 61.3216ZM37.6342 61.2588L37.5027 64.7564C38.2715 64.7853 40.0031 64.5945 41.0069 62.8923C41.8125 61.5262 41.4952 60.1718 41.3812 59.7428L37.9985 60.6411L34.6157 61.5394C34.6147 61.5356 34.2931 60.4967 34.9773 59.3365C35.8597 57.8402 37.3526 57.7458 37.7656 57.7613L37.6342 61.2588ZM37.9985 60.6411L41.3812 59.7428C41.4112 59.8557 41.4916 60.1906 41.4536 60.6554C41.4126 61.1571 41.2166 61.9342 40.562 62.6173C39.9115 63.2962 39.1531 63.522 38.6735 63.5864C38.2248 63.6467 37.8971 63.588 37.7882 63.566L38.4828 60.1356L39.1774 56.7052C38.8032 56.6294 36.9453 56.274 35.5078 57.7743C34.049 59.2966 34.5148 61.1592 34.6157 61.5394L37.9985 60.6411ZM38.4828 60.1356L37.7882 63.566C38.2476 63.659 39.1081 63.78 40.0629 63.4759C41.2658 63.0927 42.2304 62.1521 42.6047 60.8806L39.2472 59.8922L35.8896 58.9037C36.0151 58.4774 36.2578 58.0026 36.6713 57.5852C37.0821 57.1704 37.5429 56.932 37.9386 56.806C38.6386 56.583 39.1539 56.7005 39.1774 56.7052L38.4828 60.1356ZM39.2472 59.8922L42.6047 60.8806C42.7772 60.2945 42.8536 59.7103 42.8702 59.1552L39.3718 59.0501L35.8734 58.945C35.8724 58.9769 35.8704 58.988 35.8714 58.9812C35.8724 58.9743 35.8769 58.9471 35.8896 58.9037L39.2472 59.8922ZM39.3718 59.0501L42.8702 59.1552C42.8612 59.4573 42.7972 59.9337 42.5283 60.4557C42.2411 61.0131 41.7968 61.4704 41.2618 61.773C40.318 62.3069 39.4931 62.1511 39.4299 62.1405L40.0103 58.6889L40.5907 55.2374C40.1112 55.1567 38.9717 55.0261 37.8151 55.6804C36.3489 56.5099 35.9034 57.9476 35.8734 58.945L39.3718 59.0501ZM40.0103 58.6889L39.4299 62.1405C40.0943 62.2522 41.9154 62.4525 43.3473 61.0334L40.8836 58.5474L38.4199 56.0614C38.977 55.5092 39.5968 55.3134 39.9809 55.2511C40.3378 55.1933 40.5703 55.234 40.5907 55.2374L40.0103 58.6889ZM40.8836 58.5474L43.3473 61.0334C44.287 60.1021 44.5017 58.9724 44.5105 58.2284C44.5189 57.5169 44.3528 56.8989 44.2099 56.4767L40.8948 57.5992L37.5797 58.7217C37.5796 58.7217 37.5788 58.7193 37.5774 58.7147C37.576 58.71 37.5738 58.7028 37.5711 58.693C37.5659 58.6741 37.5579 58.6424 37.5494 58.5991C37.5336 58.5193 37.5085 58.3614 37.511 58.1458C37.5161 57.7178 37.646 56.8283 38.4199 56.0614L40.8836 58.5474ZM40.8948 57.5992L44.2099 56.4767C44.2225 56.514 44.27 56.6592 44.2962 56.8842C44.321 57.0973 44.3449 57.5318 44.1847 58.0661C44.0074 58.6575 43.6285 59.2774 43.0026 59.7367C42.4167 60.1666 41.8332 60.2959 41.4737 60.3325L41.1192 56.8505L40.7647 53.3685C40.2511 53.4208 39.5428 53.5931 38.8612 54.0933C38.1396 54.6228 37.6941 55.3401 37.4794 56.0563C37.1166 57.2667 37.4456 58.3257 37.5797 58.7217L40.8948 57.5992ZM41.1192 56.8505L41.4737 60.3325C41.8905 60.2901 42.3029 60.2283 42.7086 60.1445L42.0008 56.7168L41.293 53.2892C41.1392 53.3209 40.9638 53.3483 40.7647 53.3685L41.1192 56.8505ZM42.0008 56.7168L42.7086 60.1445C43.6868 59.9425 44.7904 59.3248 45.4146 58.094C45.9444 57.0493 45.8719 56.0482 45.7868 55.5151L42.3305 56.0667L38.8743 56.6183C38.8491 56.4609 38.7516 55.7559 39.1715 54.9279C39.6858 53.9138 40.5945 53.4334 41.293 53.2892L42.0008 56.7168ZM42.3305 56.0667L45.7868 55.5151C45.8124 55.6756 45.9137 56.4068 45.467 57.2551C44.9218 58.2905 43.9801 58.742 43.3019 58.8667L42.6687 55.4245L42.0355 51.9822C41.0719 52.1595 39.9311 52.7442 39.2732 53.9937C38.7138 55.0561 38.7887 56.0821 38.8743 56.6183L42.3305 56.0667ZM42.6687 55.4245L43.3019 58.8667C44.0535 58.7284 44.9789 58.3447 45.695 57.476C46.3917 56.6308 46.5858 55.6945 46.6121 55.0195L43.1148 54.8832L39.6175 54.747C39.6317 54.3803 39.7455 53.6884 40.2935 53.0236C40.8609 52.3353 41.5692 52.068 42.0355 51.9822L42.6687 55.4245ZM43.1148 54.8832L46.6121 55.0195C46.589 55.6129 46.3248 56.6937 45.262 57.4287C44.3757 58.0417 43.5354 57.9758 43.3682 57.9597L43.7039 54.4758L44.0396 50.9919C43.4917 50.9391 42.3628 50.9228 41.2802 51.6716C40.021 52.5424 39.6526 53.8452 39.6175 54.747L43.1148 54.8832ZM43.7039 54.4758L43.3682 57.9597C43.8665 58.0077 44.6405 58.0127 45.4696 57.6808C46.4147 57.3025 47.2099 56.5688 47.6392 55.5655L44.4214 54.1886L41.2036 52.8116C41.5353 52.0365 42.1621 51.4648 42.868 51.1822C43.4579 50.9461 43.922 50.9806 44.0396 50.9919L43.7039 54.4758ZM44.4214 54.1886L47.6392 55.5655C47.637 55.5705 47.6244 55.598 47.5956 55.6371L44.7768 53.5624L41.958 51.4878C41.6507 51.9053 41.4011 52.3502 41.2036 52.8116L44.4214 54.1886ZM44.7768 53.5624L47.5956 55.6371C48.1627 54.8667 48.4197 54.027 48.5124 53.2803L45.039 52.8491L41.5657 52.418C41.5873 52.2438 41.6695 51.8797 41.958 51.4878L44.7768 53.5624ZM45.039 52.8491L48.5124 53.2803C48.497 53.4044 48.4387 53.6873 48.228 54.0148L45.2849 52.1205L42.3418 50.2262C41.8743 50.9526 41.6522 51.7212 41.5657 52.418L45.039 52.8491ZM45.2849 52.1205L48.228 54.0148C47.8845 54.5485 47.4001 54.8594 46.9967 54.9991L45.8513 51.6919L44.7059 48.3846C43.804 48.697 42.942 49.2937 42.3418 50.2262L45.2849 52.1205ZM45.8513 51.6919L46.9967 54.9991C47.6578 54.7702 48.3162 54.404 48.892 53.8561L46.4791 51.3207L44.0663 48.7853C44.3034 48.5597 44.5433 48.4409 44.7059 48.3846L45.8513 51.6919ZM46.4791 51.3207L48.892 53.8561C49.2539 53.5116 49.5727 53.13 49.8467 52.7165L46.9292 50.7831L44.0116 48.8498C44.0242 48.8308 44.043 48.8075 44.0663 48.7853L46.4791 51.3207ZM46.9292 50.7831L49.8467 52.7165C49.4576 53.3037 48.9188 53.6689 48.4185 53.8528C47.9697 54.0177 47.6213 54.0147 47.4994 54.0089L47.6648 50.5128L47.8302 47.0167C46.9293 46.9741 45.1333 47.157 44.0116 48.8498L46.9292 50.7831ZM47.6648 50.5128L47.4994 54.0089C48.1932 54.0417 49.77 53.9248 50.8498 52.4704C51.8189 51.165 51.6188 49.7651 51.5153 49.2533L48.0847 49.9471L44.6542 50.6409C44.6304 50.5232 44.4002 49.4147 45.2293 48.2978C46.169 47.032 47.4961 47.0009 47.8302 47.0167L47.6648 50.5128ZM48.0847 49.9471L51.5153 49.2533C51.5386 49.3687 51.7382 50.3329 51.0751 51.3772C50.2749 52.6375 49.023 52.8352 48.5375 52.845L48.4666 49.3457L48.3956 45.8464C47.5759 45.8631 46.0932 46.1643 45.1657 47.6251C44.3753 48.8699 44.5511 50.1314 44.6542 50.6409L48.0847 49.9471ZM48.4666 49.3457L48.5375 52.845C49.3873 52.8278 50.9253 52.4989 51.8295 50.9519C52.572 49.6816 52.3504 48.4262 52.241 47.9469L48.8288 48.726L45.4166 49.5051C45.3999 49.4322 45.1644 48.4832 45.7861 47.4196C46.5696 46.0791 47.8801 45.8569 48.3956 45.8464L48.4666 49.3457ZM48.8288 48.726L52.241 47.9469C52.258 48.0215 52.4222 48.7043 52.0721 49.5656C51.8753 50.0497 51.5418 50.5181 51.0674 50.8825C50.6099 51.2338 50.1467 51.3932 49.8024 51.4626L49.1111 48.0315L48.4198 44.6005C47.3258 44.8209 46.1474 45.5519 45.5874 46.9296C45.1432 48.0224 45.3068 49.0241 45.4166 49.5051L48.8288 48.726ZM49.1111 48.0315L49.8024 51.4626C49.9017 51.4425 50.0366 51.4237 50.213 51.4137L50.0157 47.9193L49.8184 44.4249C49.3506 44.4513 48.8825 44.5072 48.4198 44.6005L49.1111 48.0315ZM50.0157 47.9193L50.213 51.4137C50.8703 51.3766 51.6256 51.2368 52.3712 50.8727L50.8354 47.7277L49.2996 44.5826C49.5964 44.4377 49.8052 44.4256 49.8184 44.4249L50.0157 47.9193ZM50.8354 47.7277L52.3712 50.8727C53.6672 50.2398 54.3295 49.0598 54.4961 47.9594C54.6322 47.0602 54.4406 46.2869 54.3054 45.8511L50.9625 46.888L47.6196 47.9248C47.6116 47.8989 47.5836 47.8045 47.5638 47.6559C47.5447 47.5123 47.5238 47.2494 47.5749 46.9117C47.6277 46.5627 47.7636 46.1006 48.082 45.6357C48.4107 45.1558 48.8444 44.8049 49.2996 44.5826L50.8354 47.7277ZM50.9625 46.888L54.3054 45.8511C54.3326 45.9386 54.4285 46.2623 54.4121 46.7268C54.3945 47.2236 54.2319 48.0887 53.5049 48.8467C52.7834 49.5989 51.9375 49.7952 51.4638 49.837C51.015 49.8765 50.6978 49.8027 50.6139 49.7821L51.4471 46.3827L52.2803 42.9833C51.965 42.9061 51.4541 42.8107 50.8493 42.864C50.2196 42.9195 49.2552 43.1648 48.453 44.0013C47.6452 44.8435 47.4395 45.828 47.4164 46.4794C47.3946 47.0986 47.5227 47.6122 47.6196 47.9248L50.9625 46.888ZM51.4471 46.3827L50.6139 49.7821C51.0058 49.8782 52.2772 50.1677 53.5862 49.4799C55.4146 48.5191 55.6613 46.6971 55.5937 45.7806L52.1032 46.038L48.6127 46.2954C48.593 46.029 48.5939 45.5029 48.8519 44.8915C49.1405 44.2077 49.6625 43.6341 50.3301 43.2833C50.9283 42.969 51.464 42.9256 51.7406 42.925C52.026 42.9243 52.2208 42.9688 52.2803 42.9833L51.4471 46.3827ZM52.1032 46.038L55.5937 45.7806C55.5821 45.6237 55.5894 45.5422 55.5919 45.5215L52.1182 45.0933L48.6445 44.6652C48.5764 45.2175 48.5736 45.7657 48.6127 46.2954L52.1032 46.038ZM52.1182 45.0933L55.5919 45.5215C55.566 45.7319 55.4941 46.0482 55.3024 46.3988C55.1029 46.7638 54.8158 47.0872 54.4644 47.3318L52.4649 44.4591L50.4654 41.5865C49.2838 42.4089 48.7737 43.6166 48.6445 44.6652L52.1182 45.0933ZM52.4649 44.4591L54.4644 47.3318C54.2792 47.4607 54.1256 47.5127 54.0574 47.5309L53.1575 44.1485L52.2577 40.7662C51.6577 40.9258 51.0423 41.185 50.4654 41.5865L52.4649 44.4591ZM53.1575 44.1485L54.0574 47.5309C55.1957 47.2281 56.2958 46.4618 56.89 45.1708L53.7106 43.7074L50.5312 42.244C50.6982 41.8813 50.9594 41.5308 51.3127 41.249C51.6567 40.9747 52.0002 40.8347 52.2577 40.7662L53.1575 44.1485ZM53.7106 43.7074L56.89 45.1708C56.9924 44.9482 57.095 44.7256 57.1975 44.5032L54.0192 43.0375L50.8408 41.5719C50.7376 41.7959 50.6343 42.0199 50.5312 42.244L53.7106 43.7074ZM54.0192 43.0375L57.1975 44.5032C56.9727 44.9907 56.6023 45.4256 56.123 45.7294C55.6748 46.0135 55.2636 46.1006 55.0286 46.1276L54.63 42.6504L54.2314 39.1731C53.0574 39.3077 51.5858 39.9565 50.8408 41.5719L54.0192 43.0375ZM54.63 42.6504L55.0286 46.1276C55.8997 46.0277 57.006 45.6752 57.8906 44.7213L55.3243 42.3414L52.758 39.9615C53.3253 39.3498 53.9687 39.2032 54.2314 39.1731L54.63 42.6504ZM55.3243 42.3414L57.8906 44.7213C58.1963 44.3918 58.4687 44.037 58.7078 43.6604L55.7532 41.7841L52.7986 39.9079C52.7832 39.9321 52.7697 39.9489 52.758 39.9615L55.3243 42.3414ZM55.7532 41.7841L58.7078 43.6604C59.0802 43.074 59.3135 42.4546 59.4485 41.8502L56.0327 41.087L52.617 40.3238C52.6339 40.248 52.6808 40.0933 52.7986 39.9079L55.7532 41.7841ZM56.0327 41.087L59.4485 41.8502C59.3838 42.1397 59.2093 42.5667 58.8179 42.9492L56.3719 40.4457L53.926 37.9423C53.2004 38.6512 52.7998 39.5057 52.617 40.3238L56.0327 41.087ZM56.3719 40.4457L58.8179 42.9492C58.9585 42.8117 59.1015 42.6764 59.2469 42.5431L56.8812 39.9636L54.5156 37.3841C54.316 37.5672 54.1195 37.7532 53.926 37.9423L56.3719 40.4457ZM56.8812 39.9636L59.2469 42.5431C59.1557 42.6267 59.0709 42.6782 59.0136 42.7062L57.4764 39.5619L55.9392 36.4175C55.4332 36.6649 54.9517 36.9842 54.5156 37.3841L56.8812 39.9636ZM57.4764 39.5619L59.0136 42.7062C60.0717 42.1889 60.847 41.3027 61.2352 40.2238L57.9419 39.0388L54.6486 37.8538C54.7434 37.5903 54.9016 37.2971 55.1464 37.0221C55.392 36.7461 55.6713 36.5485 55.9392 36.4175L57.4764 39.5619ZM57.9419 39.0388L61.2352 40.2238C61.2933 40.0624 61.3549 39.9089 61.4198 39.763L58.2214 38.3416L55.023 36.9202C54.8872 37.2257 54.7626 37.5371 54.6486 37.8538L57.9419 39.0388ZM58.2214 38.3416L61.4198 39.763C61.3487 39.923 61.2314 40.1057 61.0593 40.2725L58.6235 37.7592L56.1877 35.2459C55.68 35.7379 55.2947 36.3088 55.023 36.9202L58.2214 38.3416ZM58.6235 37.7592L61.0593 40.2725C60.505 40.8097 59.8955 40.9986 59.5199 41.0586C59.1696 41.1145 58.942 41.075 58.9221 41.0717L59.4986 37.6195L60.0752 34.1673C59.4076 34.0558 57.6148 33.8628 56.1877 35.2459L58.6235 37.7592ZM59.4986 37.6195L58.9221 41.0717C59.6074 41.1861 61.0114 41.3191 62.3302 40.4631L60.4247 37.5273L58.5191 34.5915C59.0029 34.2775 59.4502 34.1901 59.6952 34.1657C59.822 34.1531 59.9187 34.1546 59.9771 34.1578C60.0361 34.1609 60.0702 34.1665 60.0752 34.1673L59.4986 37.6195ZM60.4247 37.5273L62.3302 40.4631C63.6325 39.6178 64.1505 38.3094 64.2532 37.2182L60.7686 36.8904L57.2839 36.5627C57.3046 36.3433 57.3725 35.9953 57.5822 35.607C57.8024 35.1992 58.1262 34.8465 58.5191 34.5915L60.4247 37.5273ZM60.7686 36.8904L64.2532 37.2182C64.277 36.9653 64.3047 36.718 64.3363 36.4761L60.8658 36.0228L57.3953 35.5694C57.3525 35.897 57.3154 36.2282 57.2839 36.5627L60.7686 36.8904ZM60.8658 36.0228L64.3363 36.4761C64.2569 37.0836 63.9255 37.9473 63.0687 38.5571C62.3183 39.0912 61.5999 39.1134 61.3615 39.1075L61.4477 35.6086L61.5338 32.1096C60.9448 32.0951 59.954 32.182 59.0096 32.8542C57.9589 33.602 57.5118 34.6772 57.3953 35.5694L60.8658 36.0228ZM61.4477 35.6086L61.3615 39.1075C61.9939 39.1231 63.1627 39.0153 64.1799 38.1018C65.2602 37.1317 65.4757 35.8882 65.4704 35.1152L61.9705 35.1391L58.4706 35.1631C58.4675 34.7117 58.5969 33.7072 59.503 32.8936C60.3459 32.1366 61.2522 32.1027 61.5338 32.1096L61.4477 35.6086ZM61.9705 35.1391L65.4704 35.1152C65.4717 35.2984 65.4346 36.2877 64.4969 37.0968L62.2105 34.4468L59.9241 31.7968C58.662 32.8857 58.4649 34.3367 58.4706 35.1631L61.9705 35.1391ZM62.2105 34.4468L64.4969 37.0968C64.9345 36.7192 66.0485 35.5584 65.7802 33.7325C65.5418 32.1097 64.3709 31.3082 64.0295 31.0911L62.1514 34.0445L60.2734 36.998C60.1335 36.9091 59.0733 36.2386 58.8546 34.75C58.606 33.0581 59.6488 32.0343 59.9241 31.7968L62.2105 34.4468ZM62.1514 34.0445L64.0295 31.0911C63.3702 30.6718 62.6751 30.4432 62.0249 30.3306L61.4277 33.7792L60.8305 37.2279C60.742 37.2126 60.5294 37.1608 60.2734 36.998L62.1514 34.0445ZM61.4277 33.7792L62.0249 30.3306C62.3139 30.3806 62.7371 30.5108 63.1659 30.8302C63.611 31.1617 63.9149 31.588 64.0904 32.0085L60.8605 33.3568L57.6306 34.7051C58.2549 36.2004 59.5503 37.0062 60.8305 37.2279L61.4277 33.7792ZM60.8605 33.3568L64.0904 32.0085C63.6796 31.0245 62.943 30.2085 61.9508 29.7122L60.3849 32.8423L58.819 35.9725C58.5715 35.8487 58.3207 35.6695 58.0987 35.4294C57.8777 35.1903 57.7272 34.9364 57.6306 34.7051L60.8605 33.3568ZM60.3849 32.8423L61.9508 29.7122C62.276 29.8749 62.5926 30.1193 62.8518 30.4458C63.1061 30.7662 63.2449 31.0893 63.3168 31.3457L59.9467 32.2903L56.5766 33.2349C56.8883 34.3472 57.631 35.3782 58.819 35.9725L60.3849 32.8423ZM59.9467 32.2903L63.3168 31.3457C62.9276 29.9571 61.892 28.8692 60.4763 28.4392L59.459 31.7881L58.4417 35.137C58.0773 35.0263 57.6431 34.8045 57.2596 34.4095C56.8777 34.0162 56.6743 33.5835 56.5766 33.2349L59.9467 32.2903ZM59.459 31.7881L60.4763 28.4392C60.8125 28.5413 61.2158 28.7418 61.5826 29.098C61.9504 29.4553 62.1665 29.8579 62.2807 30.2038L58.9569 31.3003L55.633 32.3968C56.076 33.7396 57.1127 34.7333 58.4417 35.137L59.459 31.7881ZM58.9569 31.3003L62.2807 30.2038C61.9432 29.1809 61.2451 28.2555 60.1878 27.6796L58.5137 30.7533L56.8396 33.8269C56.559 33.6741 56.2898 33.4578 56.0651 33.1804C55.8433 32.9067 55.7097 32.6291 55.633 32.3968L58.9569 31.3003ZM58.5137 30.7533L60.1878 27.6796C60.4665 27.8314 60.7341 28.046 60.958 28.3213C61.179 28.5931 61.3129 28.8691 61.3902 29.1008L58.0696 30.2072L54.7491 31.3136C55.0889 32.3335 55.7871 33.2537 56.8396 33.8269L58.5137 30.7533ZM58.0696 30.2072L61.3902 29.1008C61.3077 28.8533 61.2252 28.6057 61.1428 28.3581L57.822 29.4638L54.5013 30.5695C54.5839 30.8176 54.6665 31.0656 54.7491 31.3136L58.0696 30.2072ZM57.822 29.4638L61.1428 28.3581C60.7895 27.2972 59.9988 26.4083 58.8976 25.9625C57.9668 25.5857 57.1039 25.642 56.6008 25.7172L57.118 29.1788L57.6351 32.6404C57.5189 32.6577 56.9668 32.7327 56.2707 32.4509C55.4042 32.1001 54.772 31.3827 54.5013 30.5695L57.822 29.4638ZM57.118 29.1788L56.6008 25.7172C56.6945 25.7032 57.1036 25.6486 57.6529 25.815C58.3032 26.012 58.9819 26.4751 59.4072 27.2288L56.359 28.9489L53.3109 30.669C54.5351 32.8383 56.8118 32.7634 57.6351 32.6404L57.118 29.1788ZM56.359 28.9489L59.4072 27.2288C59.3103 27.057 59.2158 26.8819 59.1238 26.7032L56.012 28.3053L52.9003 29.9074C53.0327 30.1647 53.1696 30.4185 53.3109 30.669L56.359 28.9489ZM56.012 28.3053L59.1238 26.7032C59.198 26.8472 59.2163 26.9445 59.2183 26.9557L55.7702 27.5561L52.3221 28.1566C52.4221 28.7307 52.6017 29.3274 52.9003 29.9074L56.012 28.3053ZM55.7702 27.5561L59.2183 26.9557C59.0821 26.1738 58.7524 25.3011 58.0736 24.5411L55.4631 26.8725L52.8527 29.2039C52.4853 28.7925 52.3602 28.3756 52.3221 28.1566L55.7702 27.5561ZM55.4631 26.8725L58.0736 24.5411C57.1114 23.4637 55.8704 23.1409 54.9533 23.0905L54.7613 26.5852L54.5693 30.08C54.2766 30.0639 53.5035 29.9326 52.8527 29.2039L55.4631 26.8725ZM54.7613 26.5852L54.9533 23.0905C55.1832 23.1031 55.8266 23.1977 56.4347 23.7693L54.0378 26.3197L51.6409 28.8701C52.5892 29.7614 53.715 30.033 54.5693 30.08L54.7613 26.5852ZM54.0378 26.3197L56.4347 23.7693C55.8875 23.2549 55.2643 22.8952 54.6247 22.6609L53.4207 25.9473L52.2168 29.2338C52.0598 29.1762 51.848 29.0648 51.6409 28.8701L54.0378 26.3197ZM53.4207 25.9473L54.6247 22.6609C55.0255 22.8077 55.4603 23.078 55.8171 23.5066C56.1653 23.9248 56.3246 24.3556 56.3923 24.6693L52.9709 25.407L49.5495 26.1448C49.8363 27.4748 50.7416 28.6933 52.2168 29.2338L53.4207 25.9473ZM52.9709 25.407L56.3923 24.6693C56.2542 24.0289 55.9477 23.3042 55.3513 22.6727C54.7503 22.0364 54.0306 21.6808 53.3647 21.5089L52.49 24.8979L51.6154 28.2868C51.2115 28.1826 50.7029 27.9457 50.2622 27.4791C49.826 27.0172 49.629 26.5133 49.5495 26.1448L52.9709 25.407ZM52.49 24.8979L53.3647 21.5089C53.8168 21.6256 54.378 21.9 54.8382 22.4377C55.2846 22.9591 55.4444 23.504 55.4959 23.8538L52.0334 24.3644L48.5708 24.8751C48.6649 25.5129 48.922 26.2907 49.5206 26.9899C50.1331 27.7054 50.9014 28.1025 51.6154 28.2868L52.49 24.8979ZM52.0334 24.3644L55.4959 23.8538C55.4737 23.703 55.457 23.5272 55.4494 23.3239L51.9518 23.4543L48.4543 23.5847C48.4705 24.0188 48.5081 24.4498 48.5708 24.8751L52.0334 24.3644ZM51.9518 23.4543L55.4494 23.3239C55.4216 22.5785 55.175 21.4254 54.1712 20.5105C53.1951 19.6208 52.0668 19.4743 51.3912 19.4825L51.434 22.9823L51.4768 26.482C51.1345 26.4862 50.2593 26.4163 49.4558 25.684C48.6246 24.9264 48.4702 24.0114 48.4543 23.5847L51.9518 23.4543ZM51.434 22.9823L51.3912 19.4825C51.5562 19.4805 52.2722 19.5082 52.9755 20.1239L50.6701 22.7574L48.3647 25.3908C49.4198 26.3145 50.6451 26.4922 51.4768 26.482L51.434 22.9823ZM50.6701 22.7574L52.9755 20.1239C52.2279 19.4695 51.3755 19.1443 50.6043 19.0061L49.987 22.4513L49.3698 25.8964C49.1574 25.8584 48.7604 25.7373 48.3647 25.3908L50.6701 22.7574ZM49.987 22.4513L50.6043 19.0061C50.974 19.0724 51.4671 19.2352 51.9486 19.6062C52.4452 19.9889 52.7762 20.4756 52.9648 20.9552C53.2948 21.7944 53.135 22.4492 53.1261 22.4899L49.7074 21.74L46.2887 20.9902C46.1867 21.4549 46.0271 22.4403 46.4503 23.5166C46.999 24.9122 48.1973 25.6863 49.3698 25.8964L49.987 22.4513ZM49.7074 21.74L53.1261 22.4899C53.2591 21.8835 53.637 19.7275 51.8413 18.2064L49.579 20.8769L47.3167 23.5475C46.6113 22.95 46.3553 22.2061 46.2832 21.7212C46.2191 21.2908 46.2846 21.0087 46.2887 20.9902L49.7074 21.74ZM49.579 20.8769L51.8413 18.2064C51.6201 18.019 51.3944 17.8369 51.1642 17.6599L49.0313 20.4349L46.8984 23.21C47.0412 23.3197 47.1806 23.4322 47.3167 23.5475L49.579 20.8769ZM49.0313 20.4349L51.1642 17.6599C51.5384 17.9476 51.7703 18.3088 51.8886 18.621L48.6154 19.8605L45.3422 21.1C45.6419 21.8914 46.151 22.6356 46.8984 23.21L49.0313 20.4349ZM48.6154 19.8605L51.8886 18.621C51.5108 17.6234 50.7492 16.8108 49.7329 16.3824C48.8497 16.01 48.023 16.0307 47.5094 16.0913L47.9196 19.5672L48.3298 23.0431C48.1893 23.0597 47.6652 23.1072 47.0139 22.8327C46.2295 22.502 45.6293 21.8581 45.3422 21.1L48.6154 19.8605ZM47.9196 19.5672L47.5094 16.0913C47.7342 16.0648 48.9043 15.9638 49.9357 16.9528C50.9881 17.9619 50.9231 19.1654 50.8973 19.4265L47.4142 19.0827L43.9312 18.7388C43.8691 19.367 43.8702 20.8348 45.0911 22.0055C46.291 23.1559 47.7319 23.1137 48.3298 23.0431L47.9196 19.5672ZM47.4142 19.0827L50.8973 19.4265C50.9505 18.8872 50.9527 17.9741 50.4624 17.0305C49.8964 15.9414 48.9292 15.2941 47.9486 15.0415L47.0755 18.4308L46.2024 21.8202C45.4839 21.6351 44.7041 21.1302 44.251 20.2583C43.8736 19.532 43.9142 18.9111 43.9312 18.7388L47.4142 19.0827ZM47.0755 18.4308L47.9486 15.0415C48.1545 15.0945 48.4765 15.2255 48.791 15.5142L46.4243 18.0927L44.0576 20.6712C44.7162 21.2757 45.4723 21.6321 46.2024 21.8202L47.0755 18.4308ZM46.4243 18.0927L48.791 15.5142C49.1465 15.8404 49.328 16.2092 49.4074 16.476L46.0526 17.4739L42.6979 18.4718C42.9288 19.2478 43.3581 20.0291 44.0576 20.6712L46.4243 18.0927ZM46.0526 17.4739L49.4074 16.476C49.2277 15.8721 48.8753 15.2269 48.276 14.6975C47.6855 14.1757 47.0303 13.9205 46.4763 13.8097C45.487 13.6118 44.6304 13.8321 44.2054 13.9621L45.2288 17.3091L46.2523 20.6561C46.2305 20.6628 46.1283 20.6933 45.9641 20.713C45.8082 20.7317 45.4992 20.7529 45.1035 20.6738C44.6868 20.5904 44.1441 20.3876 43.6412 19.9433C43.1294 19.4912 42.8397 18.9484 42.6979 18.4718L46.0526 17.4739ZM45.2288 17.3091L44.2054 13.9621C44.2385 13.952 44.3724 13.9125 44.5807 13.8925C44.7778 13.8736 45.1774 13.8586 45.6713 14.004C46.2116 14.1631 46.8151 14.5036 47.2851 15.1019C47.7356 15.6753 47.8913 16.2659 47.9394 16.6622L44.4649 17.0842L40.9905 17.5062C41.0565 18.0498 41.2574 18.7604 41.7805 19.4262C42.3231 20.1169 43.0266 20.5224 43.6942 20.719C44.837 21.0555 45.8443 20.7809 46.2523 20.6561L45.2288 17.3091ZM44.4649 17.0842L47.9394 16.6622C47.8402 15.8455 47.5306 14.8743 46.7741 14.0364L44.1763 16.382L41.5786 18.7275C41.1353 18.2365 41.0181 17.7334 40.9905 17.5062L44.4649 17.0842ZM44.1763 16.382L46.7741 14.0364C47.2091 14.5182 47.3281 15.0115 47.3572 15.239L43.8853 15.6822L40.4135 16.1254C40.5174 16.939 40.8304 17.8989 41.5786 18.7275L44.1763 16.382ZM43.8853 15.6822L47.3572 15.239C47.2463 14.3707 46.8127 13.2542 45.709 12.487C44.7126 11.7943 43.6732 11.7453 43.0775 11.7836L43.3016 15.2764L43.5257 18.7692C43.2817 18.7848 42.5155 18.7922 41.7136 18.2348C40.8046 17.6029 40.4869 16.7005 40.4135 16.1254L43.8853 15.6822ZM43.3016 15.2764L43.0775 11.7836C43.163 11.7781 43.8737 11.7419 44.6257 12.3193L42.494 15.0953L40.3623 17.8713C41.4875 18.7353 42.7366 18.8198 43.5257 18.7692L43.3016 15.2764ZM42.494 15.0953L44.6257 12.3193C45.2022 12.762 45.4553 13.3322 45.5404 13.7149L42.1239 14.4749L38.7074 15.2349C38.9128 16.1583 39.4126 17.1419 40.3623 17.8713L42.494 15.0953ZM42.1239 14.4749L45.5404 13.7149C45.3875 13.0276 45.0935 12.3023 44.579 11.6413L41.817 13.791L39.055 15.9408C38.8295 15.651 38.7401 15.3816 38.7074 15.2349L42.1239 14.4749ZM41.817 13.791L44.579 11.6413C43.9359 10.815 43.0913 10.3071 42.235 10.0479L41.2208 13.3977L40.2066 16.7476C39.8564 16.6415 39.4092 16.3959 39.055 15.9408L41.817 13.791ZM41.2208 13.3977L42.235 10.0479C42.8589 10.2368 43.5212 10.676 43.9509 11.402C44.331 12.0441 44.3568 12.6208 44.3517 12.853L40.8525 12.7755L37.3534 12.698C37.3408 13.2685 37.4242 14.118 37.927 14.9675C38.4795 15.9009 39.3297 16.4821 40.2066 16.7476L41.2208 13.3977ZM40.8525 12.7755L44.3517 12.853C44.3669 12.167 44.225 10.9554 43.2332 9.9451C42.2335 8.92672 41.0126 8.76552 40.3081 8.77639L40.3621 12.276L40.4161 15.7756C40.0461 15.7813 39.0742 15.7007 38.2379 14.8489C37.4096 14.0051 37.3457 13.0459 37.3534 12.698L40.8525 12.7755ZM40.3621 12.276L40.3081 8.77639C40.3103 8.77636 40.3586 8.77559 40.443 8.7889C40.5282 8.80233 40.6598 8.83165 40.8201 8.89646L39.5083 12.1413L38.1965 15.3862C38.9799 15.7029 39.7564 15.7857 40.4161 15.7756L40.3621 12.276ZM39.5083 12.1413L40.8201 8.89646C41.209 9.05369 41.6127 9.35399 41.8984 9.79484L38.9614 11.6985L36.0244 13.6022C36.5698 14.4437 37.3381 15.0392 38.1965 15.3862L39.5083 12.1413ZM38.9614 11.6985L41.8984 9.79484C42.0284 9.99547 42.077 10.1605 42.0931 10.233L38.6765 10.9926L35.2599 11.7521C35.3962 12.3653 35.6347 13.001 36.0244 13.6022L38.9614 11.6985ZM38.6765 10.9926L42.0931 10.233C41.9017 9.37219 41.3968 8.42681 40.4241 7.77852C39.5323 7.18409 38.6133 7.08591 38.0151 7.09747L38.0827 10.5968L38.1503 14.0962C37.8879 14.1012 37.2358 14.0658 36.5418 13.6033C35.7671 13.0869 35.3912 12.3426 35.2599 11.7521L38.6765 10.9926ZM38.0827 10.5968L38.0151 7.09747C38.2553 7.09283 38.838 7.12257 39.482 7.51032C40.2064 7.94652 40.6357 8.61027 40.8188 9.22355L37.4652 10.2249L34.1115 11.2263C34.3706 12.094 34.9408 12.9469 35.8711 13.5071C36.7209 14.0188 37.5744 14.1073 38.1503 14.0962L38.0827 10.5968ZM37.4652 10.2249L40.8188 9.22355C40.6891 8.78905 40.523 8.36047 40.3145 7.94462L37.1858 9.51346L34.0571 11.0823C34.0691 11.1063 34.0893 11.1521 34.1115 11.2263L37.4652 10.2249ZM37.1858 9.51346L40.3145 7.94462C39.81 6.93853 38.9772 6.19894 37.9776 5.79564L36.668 9.04139L35.3584 12.2871C35.1226 12.192 34.8618 12.0414 34.6156 11.8169C34.3681 11.5913 34.1839 11.3352 34.0571 11.0823L37.1858 9.51346ZM36.668 9.04139L37.9776 5.79564C37.813 5.72921 37.6556 5.65948 37.5051 5.58675L35.9822 8.73806L34.4593 11.8894C34.7534 12.0315 35.0532 12.164 35.3584 12.2871L36.668 9.04139ZM35.9822 8.73806L37.5051 5.58675C37.7814 5.72028 38.0616 5.91942 38.3052 6.1913C38.547 6.46115 38.7015 6.7453 38.7943 6.99462L35.5143 8.21588L32.2343 9.43713C32.6248 10.486 33.3888 11.3721 34.4593 11.8894L35.9822 8.73806ZM35.5143 8.21588L38.7943 6.99462C38.8749 7.21112 38.902 7.38525 38.9114 7.48706C38.9207 7.58831 38.9147 7.64095 38.9156 7.63105L35.4306 7.30791L31.9455 6.98478C31.8824 7.66547 31.9001 8.53973 32.2343 9.43713L35.5143 8.21588ZM35.4306 7.30791L38.9156 7.63105C38.9822 6.91347 38.9582 5.89277 38.4511 4.87236L35.3169 6.4301L32.1826 7.98783C32.0341 7.68896 31.9779 7.42986 31.9565 7.26471C31.9354 7.10204 31.944 7.00092 31.9455 6.98478L35.4306 7.30791ZM35.3169 6.4301L38.4511 4.87236C37.6321 3.22443 36.0765 2.64869 34.8977 2.57743L34.6865 6.07106L34.4753 9.56468C34.244 9.5507 33.8193 9.48644 33.3448 9.21616C32.8336 8.92499 32.4312 8.48798 32.1826 7.98783L35.3169 6.4301ZM34.6865 6.07106L34.8977 2.57743C34.4469 2.55019 33.9907 2.54994 33.5317 2.57224L33.7016 6.06812L33.8714 9.56399C34.1045 9.55267 34.3049 9.55438 34.4753 9.56468L34.6865 6.07106ZM33.7016 6.06812L33.5317 2.57224C33.8495 2.5568 34.8322 2.58177 35.7148 3.41326C36.6189 4.26518 36.6982 5.28062 36.6913 5.65287L33.1919 5.58791L29.6925 5.52294C29.6793 6.23215 29.8404 7.4961 30.9145 8.50808C31.9669 9.49965 33.2076 9.59625 33.8714 9.56399L33.7016 6.06812ZM33.1919 5.58791L36.6913 5.65287C36.7116 4.55881 36.3175 2.74055 34.4597 1.7959L32.8734 4.91573L31.287 8.03557C30.6977 7.73594 30.2287 7.24545 29.9541 6.66593C29.708 6.14672 29.689 5.71048 29.6925 5.52294L33.1919 5.58791ZM32.8734 4.91573L34.4597 1.7959C34.0808 1.6032 33.6904 1.44145 33.2925 1.30745L32.1755 4.62444L31.0586 7.94144C31.1539 7.97351 31.2287 8.00595 31.287 8.03557L32.8734 4.91573ZM32.1755 4.62444L33.2925 1.30745C33.904 1.51336 34.5222 1.95582 34.9227 2.64236C35.2795 3.25406 35.3128 3.80124 35.3105 4.03383L31.8107 3.99884L28.3108 3.96386C28.3052 4.53047 28.3976 5.34893 28.8761 6.16917C29.3981 7.06424 30.2005 7.65248 31.0586 7.94144L32.1755 4.62444ZM31.8107 3.99884L35.3105 4.03383C35.3131 3.77418 35.3089 3.21045 35.1214 2.59838C35.0268 2.28955 34.8038 1.6893 34.2671 1.12295C33.6342 0.455005 32.6959 -0.0149195 31.6087 0.000362158L31.6578 3.50001L31.707 6.99967C30.6724 7.01421 29.7799 6.56451 29.186 5.93777C28.6884 5.41262 28.4976 4.87453 28.4285 4.64885C28.3489 4.38908 28.3262 4.1899 28.3187 4.11128C28.31 4.01993 28.3108 3.96558 28.3108 3.96386L31.8107 3.99884ZM31.6578 3.50001L29.4117 0.815853L29.3247 0.888637L31.5709 3.5728L33.817 6.25695L33.904 6.18417L31.6578 3.50001ZM31.5709 3.5728L34.0406 1.09275L33.9697 1.02219L31.5 3.50223L29.0303 5.98228L29.1012 6.05284L31.5709 3.5728Z" fill="#6384AF"/>
<path id="Vector 157" d="M61 39.5022C62.933 39.5022 64.5 37.9352 64.5 36.0022C64.5 34.0692 62.933 32.5022 61 32.5022V36.0022V39.5022ZM60.9 36.0022V32.5022H60.0449L59.2861 32.8965L60.9 36.0022ZM59.25 35.8871L56.7219 33.4666L59.25 35.8871ZM56.45 36.215L54.3107 33.4449L56.45 36.215ZM41.75 36.1092L41.4632 32.621V32.621L41.75 36.1092ZM39.65 36.2327L41.2821 33.1365L39.65 36.2327ZM27.05 36.3807L24.7519 33.7408L27.05 36.3807ZM19.35 36.4155L18.667 39.8482L19.35 36.4155ZM15.15 35.8027L14.0674 39.1311L15.15 35.8027ZM13.75 35.4891L13.0606 38.9205L13.75 35.4891ZM11.65 35.4183L13.1277 32.2455L11.65 35.4183ZM10.25 36.3632L8.36826 33.4121L10.25 36.3632ZM7.45 36.2872L7.29056 32.7908L7.45 36.2872ZM6.05 35.8563L3.64064 33.3177L6.05 35.8563ZM4.65 36.065L4.9146 39.555L4.65 36.065ZM3.55 35.995L3.0516 32.5307L3.05159 39.4594L3.55 35.995ZM3.6 36.0022V39.5022L4.09841 32.5379L3.6 36.0022ZM3.5 32.5022C1.567 32.5022 0 34.0692 0 36.0022C0 37.9352 1.567 39.5022 3.5 39.5022V36.0022V32.5022ZM61 36.0022V32.5022H60.9V36.0022V39.5022H61V36.0022ZM60.9 36.0022L59.2861 32.8965C59.4419 32.8156 59.9435 32.5859 60.6725 32.6508C61.5066 32.7249 62.167 33.1408 62.5733 33.6008L59.95 35.9178L57.3267 38.2347C57.9664 38.9589 58.9017 39.5209 60.0525 39.6233C61.0982 39.7162 61.9581 39.3968 62.5139 39.1079L60.9 36.0022ZM59.95 35.9178L62.5733 33.6008C62.1451 33.1159 61.2103 32.2792 59.7533 32.2153C58.2473 32.1493 57.2182 32.9482 56.7219 33.4666L59.25 35.8871L61.7781 38.3075C61.5152 38.5822 60.7194 39.2644 59.4467 39.2086C58.223 39.1549 57.5216 38.4554 57.3267 38.2347L59.95 35.9178ZM59.25 35.8871L56.7219 33.4666C56.7223 33.4662 56.73 33.4581 56.7456 33.4443C56.7611 33.4304 56.7857 33.4096 56.8199 33.3844C56.8875 33.3344 56.9996 33.2617 57.1579 33.1931L58.55 36.4044L59.9421 39.6156C60.718 39.2793 61.3223 38.7836 61.7781 38.3075L59.25 35.8871ZM58.55 36.4044L57.1579 33.1931C57.6495 32.98 58.2582 32.8864 58.891 33.0139C59.4839 33.1333 59.8857 33.4032 60.0953 33.5785L57.85 36.2634L55.6047 38.9483C56.0477 39.3187 56.6827 39.7097 57.509 39.8761C58.3751 40.0505 59.2171 39.9299 59.9421 39.6156L58.55 36.4044ZM57.85 36.2634L60.0953 33.5785C59.4477 33.0369 58.496 32.5053 57.28 32.4601L57.15 35.9577L57.02 39.4553C56.2707 39.4274 55.7857 39.0996 55.6047 38.9483L57.85 36.2634ZM57.15 35.9577L57.28 32.4601C56.0323 32.4137 55.0176 32.899 54.3107 33.4449L56.45 36.215L58.5893 38.9851C58.3491 39.1706 57.8011 39.4843 57.02 39.4553L57.15 35.9577ZM56.45 36.215L54.3107 33.4449C54.5011 33.2979 54.8316 33.0937 55.3007 32.9837C55.7944 32.8679 56.3036 32.8897 56.7655 33.0297L55.75 36.3792L54.7345 39.7286C56.2846 40.1986 57.6721 39.6934 58.5893 38.9851L56.45 36.215ZM55.75 36.3792L56.7655 33.0297C57.1466 33.1453 57.4126 33.3181 57.5661 33.439C57.7167 33.5577 57.7911 33.6513 57.802 33.6651L55.05 35.8276L52.298 37.9901C52.7481 38.563 53.5315 39.3639 54.7345 39.7286L55.75 36.3792ZM55.05 35.8276L57.802 33.6651C57.3765 33.1236 55.994 31.7227 53.8596 32.2506C52.233 32.6529 51.4888 33.9503 51.3038 34.2772L54.35 36.0008L57.3962 37.7244C57.361 37.7866 57.2421 37.9889 57.0089 38.2238C56.7792 38.4552 56.2977 38.8585 55.5404 39.0458C53.6393 39.516 52.4902 38.2347 52.298 37.9901L55.05 35.8276ZM54.35 36.0008L51.3038 34.2772C51.3219 34.2453 51.3839 34.1392 51.5019 33.9996C51.6155 33.8652 51.841 33.6282 52.2017 33.4122C52.5835 33.1836 53.1207 32.9785 53.7736 32.9689C54.4292 32.9593 54.9806 33.15 55.3821 33.3787L53.65 36.42L51.9179 39.4614C53.1496 40.1628 54.6154 40.126 55.7983 39.4176C56.6898 38.8836 57.1735 38.1179 57.3962 37.7244L54.35 36.0008ZM53.65 36.42L55.3821 33.3787C54.7595 33.0241 53.9657 32.7797 53.0662 32.8399C52.1824 32.899 51.4621 33.2343 50.9364 33.6041L52.95 36.4669L54.9636 39.3296C54.6712 39.5353 54.1843 39.7807 53.5338 39.8242C52.8676 39.8688 52.3072 39.683 51.9179 39.4614L53.65 36.42ZM52.95 36.4669L50.9364 33.6041C51.5337 33.184 52.5225 32.8543 53.6198 33.1885C54.506 33.4585 54.9444 34.0149 55.0341 34.1326L52.25 36.2536L49.4659 38.3747C49.7889 38.7987 50.4606 39.5438 51.5802 39.8848C52.9109 40.2901 54.133 39.9139 54.9636 39.3296L52.95 36.4669ZM52.25 36.2536L55.0341 34.1326C54.7324 33.7366 54.214 33.1683 53.4143 32.7845C52.5024 32.3469 51.4229 32.2511 50.3856 32.6171L51.55 35.9177L52.7144 39.2183C51.9104 39.502 51.0643 39.4211 50.3857 39.0954C49.8193 38.8236 49.5342 38.4644 49.4659 38.3747L52.25 36.2536ZM51.55 35.9177L50.3856 32.6171C50.1584 32.6972 49.9312 32.7767 49.7041 32.8554L50.85 36.1625L51.9959 39.4696C52.2354 39.3866 52.4749 39.3028 52.7144 39.2183L51.55 35.9177ZM50.85 36.1625L49.7041 32.8554C49.1536 33.0461 48.6542 33.3076 48.2059 33.6071L50.15 36.5175L52.0941 39.4279C52.1124 39.4157 52.0797 39.4405 51.9959 39.4696L50.85 36.1625ZM50.15 36.5175L48.2059 33.6071C48.5856 33.3535 49.1596 33.0978 49.886 33.0793C50.6185 33.0607 51.2211 33.2906 51.638 33.5479C52.0263 33.7875 52.2588 34.0508 52.3662 34.186C52.4801 34.3295 52.5363 34.4346 52.548 34.4569L49.45 36.0856L46.352 37.7142C46.5542 38.0987 47.0313 38.9307 47.962 39.505C48.4956 39.8343 49.2148 40.0987 50.064 40.0771C50.907 40.0556 51.5977 39.7595 52.0941 39.4279L50.15 36.5175ZM49.45 36.0856L52.548 34.4569C52.3997 34.1748 52.1329 33.7251 51.6918 33.3039C51.2377 32.8705 50.368 32.2603 49.1247 32.2515C47.8759 32.2427 46.9929 32.8455 46.5271 33.2836C46.0777 33.7062 45.8068 34.1597 45.657 34.4425L48.75 36.0806L51.843 37.7188C51.8099 37.7813 51.6556 38.0698 51.3229 38.3827C50.9738 38.711 50.2075 39.2594 49.0753 39.2514C47.9487 39.2434 47.1956 38.6893 46.8582 38.3673C46.5337 38.0575 46.3837 37.7744 46.352 37.7142L49.45 36.0856ZM48.75 36.0806L45.657 34.4425C45.677 34.4049 45.7581 34.2552 45.9216 34.0651C46.076 33.8857 46.4212 33.5327 46.9984 33.2804C47.6489 32.9961 48.4286 32.9165 49.1951 33.1377C49.887 33.3372 50.3273 33.7113 50.542 33.9289L48.05 36.3866L45.558 38.8442C45.8893 39.1801 46.4464 39.6301 47.2549 39.8634C48.1381 40.1182 49.0344 40.0299 49.8016 39.6946C51.0698 39.1404 51.6578 38.0684 51.843 37.7188L48.75 36.0806ZM48.05 36.3866L50.542 33.9289C50.1279 33.5091 49.4353 32.9658 48.4407 32.7505C47.3586 32.5162 46.3574 32.7639 45.5918 33.2086L47.35 36.235L49.1082 39.2613C48.5759 39.5706 47.8081 39.7757 46.9594 39.5919C46.198 39.4271 45.7387 39.0274 45.558 38.8442L48.05 36.3866ZM47.35 36.235L45.5918 33.2086C45.9405 33.0061 46.4185 32.8242 46.9975 32.7948C47.583 32.765 48.1027 32.9 48.5131 33.0967C49.2414 33.4459 49.5569 33.9494 49.5853 33.9931L46.65 35.8994L43.7147 37.8057C43.9764 38.2087 44.5252 38.9478 45.4869 39.4088C46.7006 39.9906 48.041 39.8813 49.1082 39.2613L47.35 36.235ZM46.65 35.8994L49.5853 33.9931C49.3547 33.638 47.9947 31.6931 45.5213 32.2576C44.5035 32.4899 43.8524 33.08 43.5223 33.4471C43.1791 33.8288 42.9575 34.2184 42.8207 34.4915L45.95 36.0592L49.0793 37.6268C49.0591 37.667 48.9542 37.8753 48.7277 38.1273C48.5143 38.3646 47.9798 38.8765 47.0787 39.0821C46.0542 39.316 45.1498 39.0237 44.5557 38.6341C44.0501 38.3026 43.7933 37.9267 43.7147 37.8057L46.65 35.8994ZM45.95 36.0592L42.8207 34.4915C42.8248 34.4833 42.8668 34.3992 42.9576 34.2759C43.0423 34.1611 43.2335 33.9241 43.5602 33.6898C43.9037 33.4435 44.4444 33.1692 45.1539 33.1141C45.8817 33.0575 46.5081 33.2535 46.9643 33.5098L45.25 36.5612L43.5357 39.6126C44.1086 39.9344 44.8517 40.1586 45.6961 40.093C46.5223 40.0289 47.1796 39.7082 47.6398 39.3781C48.456 38.7928 48.884 38.0167 49.0793 37.6268L45.95 36.0592ZM45.25 36.5612L46.9643 33.5098C46.4746 33.2346 45.9313 33.0107 45.3383 32.8736L44.55 36.2836L43.7617 39.6937C43.6353 39.6645 43.5588 39.6256 43.5357 39.6126L45.25 36.5612ZM44.55 36.2836L45.3383 32.8736C44.6488 32.7142 43.9376 32.6941 43.2335 32.8201L43.85 36.2654L44.4665 39.7106C44.229 39.7531 43.9845 39.7452 43.7617 39.6937L44.55 36.2836ZM43.85 36.2654L43.2335 32.8201C44.0426 32.6753 44.7585 32.8798 45.2534 33.1662C45.6852 33.4162 45.9018 33.6958 45.9525 33.7635L43.15 35.8602L40.3475 37.9568C40.8271 38.5979 42.2258 40.1116 44.4665 39.7106L43.85 36.2654ZM43.15 35.8602L45.9525 33.7635C45.6262 33.3274 44.8184 32.3979 43.4093 32.1488C41.7871 31.862 40.588 32.6588 39.9964 33.2405L42.45 35.7364L44.9036 38.2323C44.5453 38.5846 43.5796 39.2874 42.1907 39.0419C41.0149 38.834 40.4404 38.081 40.3475 37.9568L43.15 35.8602ZM42.45 35.7364L39.9964 33.2405C40.1173 33.1216 40.6085 32.6913 41.4632 32.621L41.75 36.1092L42.0368 39.5975C43.3582 39.4888 44.316 38.81 44.9036 38.2323L42.45 35.7364ZM41.75 36.1092L41.4632 32.621C42.9142 32.5017 43.6884 33.4096 43.755 33.4907L41.05 35.7118L38.345 37.9328C38.8783 38.5822 40.1191 39.7552 42.0368 39.5975L41.75 36.1092ZM41.05 35.7118L43.755 33.4907C43.3055 32.9433 42.0064 31.7041 40.0155 32.1011C38.3958 32.4241 37.6001 33.6437 37.3734 34.0102L40.35 35.8514L43.3266 37.6925C43.2771 37.7726 43.1375 37.9858 42.8779 38.2215C42.6149 38.4604 42.119 38.8195 41.3845 38.9659C39.627 39.3164 38.5611 38.196 38.345 37.9328L41.05 35.7118ZM40.35 35.8514L37.3734 34.0102C37.387 33.9882 37.6627 33.5173 38.3255 33.1562C38.701 32.9516 39.2024 32.7834 39.794 32.7782C40.3869 32.773 40.8957 32.9329 41.2821 33.1365L39.65 36.2327L38.0179 39.3289C39.1803 39.9416 40.5381 39.9222 41.6745 39.3031C42.5707 38.8148 43.0797 38.0917 43.3266 37.6925L40.35 35.8514ZM39.65 36.2327L41.2821 33.1365C41.1188 33.0505 40.9518 32.9554 40.7811 32.8506L38.95 35.8334L37.1189 38.8162C37.4149 38.9979 37.7145 39.169 38.0179 39.3289L39.65 36.2327ZM38.95 35.8334L40.7811 32.8506C40.101 32.4331 39.1911 32.1444 38.1567 32.2765C37.1685 32.4027 36.4309 32.8666 35.9538 33.2812L38.25 35.9228L40.5462 38.5643C40.3025 38.7761 39.7982 39.1237 39.0433 39.2201C38.2423 39.3224 37.5657 39.0904 37.1189 38.8162L38.95 35.8334ZM38.25 35.9228L35.9538 33.2812C36.1087 33.1466 36.5644 32.8149 37.2962 32.7617L37.55 36.2524L37.8038 39.7432C39.0022 39.6561 39.9246 39.1045 40.5462 38.5643L38.25 35.9228ZM37.55 36.2524L37.2962 32.7617C38.1366 32.7006 38.7982 32.9932 39.1936 33.2672C39.5471 33.5121 39.7124 33.7528 39.7368 33.7883L36.85 35.7674L33.9632 37.7464C34.3578 38.322 35.6036 39.9032 37.8038 39.7432L37.55 36.2524ZM36.85 35.7674L39.7368 33.7883C39.4487 33.3681 38.0614 31.5721 35.6717 32.1541C34.7009 32.3906 34.0711 32.9497 33.7409 33.3112C33.3997 33.6847 33.1767 34.0663 33.037 34.338L36.15 35.9379L39.263 37.5377C39.24 37.5824 39.1336 37.7866 38.9091 38.0324C38.6955 38.2662 38.1825 38.7472 37.3283 38.9553C36.3595 39.1913 35.4741 38.9522 34.8577 38.5778C34.3314 38.258 34.0554 37.8808 33.9632 37.7464L36.85 35.7674ZM36.15 35.9379L33.037 34.338C33.0637 34.2861 33.1952 34.032 33.4799 33.7426C33.7633 33.4545 34.4347 32.8996 35.4955 32.8069C36.6197 32.7088 37.4502 33.189 37.8792 33.5502C38.2671 33.8768 38.4521 34.1974 38.4978 34.2782L35.45 35.999L32.4022 37.7198C32.5645 38.0072 32.8662 38.4802 33.3708 38.9051C33.9165 39.3645 34.8637 39.8888 36.1045 39.7804C37.2819 39.6776 38.0701 39.0582 38.4701 38.6515C38.8715 38.2435 39.1196 37.8166 39.263 37.5377L36.15 35.9379ZM35.45 35.999L38.4978 34.2782C38.2743 33.8824 37.8704 33.2593 37.1954 32.7548C36.4087 32.1668 35.1935 31.7221 33.8178 32.1022L34.75 35.4758L35.6822 38.8494C35.1801 38.9881 34.6419 39.0013 34.1225 38.879C33.6238 38.7615 33.2503 38.5453 33.0046 38.3617C32.7641 38.1819 32.6123 38.0089 32.5341 37.9104C32.4531 37.8084 32.4116 37.7364 32.4022 37.7198L35.45 35.999ZM34.75 35.4758L33.8178 32.1022C32.2429 32.5374 31.4054 33.7607 31.0613 34.3253L34.05 36.1468L37.0387 37.9682C37.0537 37.9436 36.9899 38.0576 36.822 38.2185C36.6548 38.3788 36.2806 38.684 35.6822 38.8494L34.75 35.4758ZM34.05 36.1468L31.0613 34.3253C31.0699 34.3112 31.1036 34.2572 31.1672 34.1796C31.2295 34.1035 31.3414 33.9791 31.5114 33.8429C31.8625 33.5615 32.5453 33.1744 33.4836 33.2102L33.35 36.7077L33.2164 40.2051C35.5472 40.2942 36.7374 38.4625 37.0387 37.9682L34.05 36.1468ZM33.35 36.7077L33.4836 33.2102C34.3077 33.2417 34.8916 33.5898 35.1945 33.8336C35.4765 34.0605 35.5986 34.2586 35.6029 34.2653L32.65 36.1443L29.6971 38.0233C30.0404 38.5628 31.1364 40.1257 33.2164 40.2051L33.35 36.7077ZM32.65 36.1443L35.6029 34.2653C35.3474 33.8638 34.7986 33.1046 33.8219 32.633C32.5723 32.0296 31.2022 32.1671 30.1365 32.8128L31.95 35.8063L33.7635 38.7998C33.4183 39.009 32.9345 39.2048 32.3397 39.2413C31.7365 39.2784 31.2 39.1403 30.7781 38.9366C30.0347 38.5776 29.7193 38.0581 29.6971 38.0233L32.65 36.1443ZM31.95 35.8063L30.1365 32.8128C30.3099 32.7077 30.6237 32.5686 31.0494 32.5442L31.25 36.0384L31.4506 39.5327C32.3429 39.4814 33.1234 39.1876 33.7635 38.7998L31.95 35.8063ZM31.25 36.0384L31.0494 32.5442C31.2319 32.5337 31.399 32.5576 31.5343 32.5972L30.55 35.9559L29.5657 39.3147C30.1677 39.4911 30.8015 39.5699 31.4506 39.5327L31.25 36.0384ZM30.55 35.9559L31.5343 32.5972C31.2311 32.5084 30.9262 32.4293 30.6195 32.3601L29.85 35.7745L29.0805 39.1889C29.2405 39.2249 29.4022 39.2668 29.5657 39.3147L30.55 35.9559ZM29.85 35.7745L30.6195 32.3601C30.536 32.3413 30.4448 32.315 30.3454 32.2789L29.15 35.5684L27.9546 38.858C28.3218 38.9914 28.6973 39.1025 29.0805 39.1889L29.85 35.7745ZM29.15 35.5684L30.3454 32.2789C29.2263 31.8722 28.0763 32.0159 27.148 32.5129C26.3526 32.9388 25.8562 33.5438 25.579 33.9413L28.45 35.9432L31.321 37.9451C31.2771 38.0079 31.014 38.3832 30.452 38.6841C29.757 39.0562 28.8404 39.1799 27.9546 38.858L29.15 35.5684ZM28.45 35.9432L25.579 33.9413C25.6291 33.8695 25.9536 33.4038 26.6547 33.0858C27.0414 32.9105 27.5198 32.7926 28.0544 32.8123C28.5854 32.832 29.037 32.9824 29.3827 33.1647L27.75 36.2606L26.1173 39.3564C27.1575 39.905 28.4099 39.9759 29.5453 39.4612C30.4798 39.0375 31.0376 38.3515 31.321 37.9451L28.45 35.9432ZM27.75 36.2606L29.3827 33.1647C28.666 32.7867 27.7719 32.5834 26.8082 32.7487C25.8933 32.9057 25.2073 33.3444 24.7519 33.7408L27.05 36.3807L29.3481 39.0205C29.1261 39.2138 28.6734 39.531 27.9918 39.6479C27.2615 39.7732 26.6007 39.6113 26.1173 39.3564L27.75 36.2606ZM27.05 36.3807L24.7519 33.7408C25.1737 33.3737 26.0956 32.8335 27.3271 33.0578C28.3877 33.2509 28.9419 33.8923 29.0699 34.0504L26.35 36.2532L23.6301 38.456C23.9915 38.9021 24.7789 39.7089 26.073 39.9445C27.5377 40.2112 28.693 39.5908 29.3481 39.0205L27.05 36.3807ZM26.35 36.2532L29.0699 34.0504C28.4765 33.3178 26.8893 31.8888 24.6261 32.5812L25.65 35.9281L26.6739 39.275C25.9173 39.5065 25.1456 39.4181 24.5258 39.1302C23.9934 38.883 23.7118 38.5568 23.6301 38.456L26.35 36.2532ZM25.65 35.9281L24.6261 32.5812C24.688 32.5623 24.7754 32.545 24.8799 32.5429L24.95 36.0422L25.0201 39.5415C25.5913 39.5301 26.1453 39.4367 26.6739 39.275L25.65 35.9281ZM24.95 36.0422L24.8799 32.5429C24.0325 32.5599 23.267 32.7949 22.6143 33.1399L24.25 36.2342L25.8857 39.3285C25.6996 39.4268 25.4008 39.5339 25.0201 39.5415L24.95 36.0422ZM24.25 36.2342L22.6143 33.1399C22.7977 33.043 23.0454 32.9466 23.3494 32.8982C23.6583 32.849 23.9721 32.858 24.2694 32.9205L23.55 36.3457L22.8306 39.771C23.9503 40.0062 25.0125 39.7901 25.8857 39.3285L24.25 36.2342ZM23.55 36.3457L24.2694 32.9205C24.0488 32.8741 23.8282 32.8265 23.6075 32.7776L22.85 36.1946L22.0925 39.6117C22.3385 39.6662 22.5845 39.7193 22.8306 39.771L23.55 36.3457ZM22.85 36.1946L23.6075 32.7776C23.2718 32.7032 22.9334 32.644 22.5927 32.6005L22.15 36.0724L21.7073 39.5443C21.8332 39.5604 21.9615 39.5826 22.0925 39.6117L22.85 36.1946ZM22.15 36.0724L22.5927 32.6005C21.7631 32.4947 20.9586 32.6059 20.2257 32.8796L21.45 36.1585L22.6743 39.4374C22.4081 39.5368 22.0702 39.5906 21.7073 39.5443L22.15 36.0724ZM21.45 36.1585L20.2257 32.8796C20.0129 32.959 19.8003 33.0361 19.5879 33.1109L20.75 36.4123L21.9121 39.7138C22.1664 39.6243 22.4204 39.5321 22.6743 39.4374L21.45 36.1585ZM20.75 36.4123L19.5879 33.1109C19.7813 33.0428 20.0285 32.9997 20.3016 33.0194L20.05 36.5103L19.7984 40.0013C20.5382 40.0546 21.252 39.9461 21.9121 39.7138L20.75 36.4123ZM20.05 36.5103L20.3016 33.0194C20.2156 33.0132 20.1263 33.0013 20.033 32.9827L19.35 36.4155L18.667 39.8482C19.0404 39.9225 19.4178 39.9738 19.7984 40.0013L20.05 36.5103ZM19.35 36.4155L20.033 32.9827C20.4982 33.0753 20.8374 33.265 21.0439 33.4135C21.2436 33.5572 21.3483 33.6823 21.3742 33.7145L18.65 35.9119L15.9258 38.1093C16.3996 38.6967 17.2858 39.5734 18.667 39.8482L19.35 36.4155ZM18.65 35.9119L21.3742 33.7145C20.8029 33.0061 19.2878 31.6041 17.0681 32.182L17.95 35.5691L18.8319 38.9562C18.0729 39.1538 17.3329 39.0328 16.7607 38.7526C16.2643 38.5095 16.0019 38.2037 15.9258 38.1093L18.65 35.9119ZM17.95 35.5691L17.0681 32.182C15.938 32.4763 15.1468 33.1541 14.6494 33.7063L17.25 36.0488L19.8506 38.3912C19.8198 38.4254 19.4953 38.7834 18.8319 38.9562L17.95 35.5691ZM17.25 36.0488L14.6494 33.7063C14.7444 33.601 15.3574 32.9649 16.4862 32.9443L16.55 36.4437L16.6139 39.9432C18.2093 39.9141 19.289 39.0147 19.8506 38.3912L17.25 36.0488ZM16.55 36.4437L16.4862 32.9443C17.2257 32.9308 17.7425 33.2251 17.9718 33.3998L15.85 36.1833L13.7282 38.9668C14.4241 39.4973 15.4076 39.9652 16.6139 39.9432L16.55 36.4437ZM15.85 36.1833L17.9718 33.3998C17.4848 33.0286 16.9057 32.6933 16.2326 32.4743L15.15 35.8027L14.0674 39.1311C13.861 39.0639 13.7485 38.9823 13.7282 38.9668L15.85 36.1833ZM15.15 35.8027L16.2326 32.4743C15.8581 32.3525 15.4758 32.2545 15.0864 32.1825L14.45 35.6241L13.8136 39.0658C13.8909 39.0801 13.9752 39.1011 14.0674 39.1311L15.15 35.8027ZM14.45 35.6241L15.0864 32.1825C14.8708 32.1426 14.6552 32.101 14.4394 32.0577L13.75 35.4891L13.0606 38.9205C13.3115 38.9709 13.5625 39.0194 13.8136 39.0658L14.45 35.6241ZM13.75 35.4891L14.4394 32.0577C13.5342 31.8758 12.6373 31.9669 11.8219 32.2725L13.05 35.5499L14.2781 38.8274C13.9293 38.9581 13.4991 39.0086 13.0606 38.9205L13.75 35.4891ZM13.05 35.5499L11.8219 32.2725C12.1053 32.1663 12.4631 32.1119 12.8438 32.1662L12.35 35.6312L11.8562 39.0962C12.7035 39.2169 13.5281 39.1084 14.2781 38.8274L13.05 35.5499ZM12.35 35.6312L12.8438 32.1662C12.9808 32.1857 13.0777 32.2223 13.1277 32.2455L11.65 35.4183L10.1723 38.591C10.6889 38.8317 11.2525 39.0101 11.8562 39.0962L12.35 35.6312ZM11.65 35.4183L13.1277 32.2455C12.1606 31.7951 11.0401 31.7419 10.0026 32.156C9.10307 32.515 8.52684 33.1195 8.20514 33.5261L10.95 35.6977L13.6949 37.8693C13.6065 37.9809 13.2636 38.3914 12.5974 38.6573C11.7932 38.9782 10.9061 38.9328 10.1723 38.591L11.65 35.4183ZM10.95 35.6977L8.20514 33.5261C8.17426 33.5651 8.16758 33.5685 8.18829 33.5488C8.20883 33.5293 8.26761 33.4763 8.36826 33.4121L10.25 36.3632L12.1317 39.3144C12.7887 38.8954 13.3003 38.368 13.6949 37.8693L10.95 35.6977ZM10.25 36.3632L8.36826 33.4121C8.65093 33.2319 9.08477 33.0382 9.64318 32.9971C10.213 32.9552 10.7135 33.0871 11.0913 33.2724L9.55 36.4147L8.00872 39.5571C9.42169 40.2502 10.9497 40.0681 12.1317 39.3144L10.25 36.3632ZM9.55 36.4147L11.0913 33.2724C10.5444 33.0041 9.93638 32.8073 9.27716 32.7262L8.85 36.2L8.42284 39.6739C8.23029 39.6502 8.08895 39.5965 8.00872 39.5571L9.55 36.4147ZM8.85 36.2L9.27716 32.7262C8.71237 32.6568 8.14538 32.6686 7.58621 32.7598L8.15 36.2141L8.71379 39.6684C8.62129 39.6835 8.52096 39.6859 8.42284 39.6739L8.85 36.2ZM8.15 36.2141L7.58621 32.7598C7.4851 32.7763 7.38677 32.7865 7.29056 32.7908L7.45 36.2872L7.60944 39.7836C7.9799 39.7667 8.34823 39.7281 8.71379 39.6684L8.15 36.2141ZM7.45 36.2872L7.29056 32.7908C8.53934 32.7339 9.24006 33.4482 9.35336 33.5743L6.75 35.9137L4.14665 38.253C4.72661 38.8984 5.89399 39.8618 7.60944 39.7836L7.45 36.2872ZM6.75 35.9137L9.35336 33.5743C8.92743 33.1003 8.04605 32.3277 6.68568 32.2163C5.24658 32.0984 4.19854 32.7882 3.64064 33.3177L6.05 35.8563L8.45936 38.395C8.1348 38.7031 7.3201 39.2917 6.11432 39.1929C4.98729 39.1006 4.33924 38.4674 4.14665 38.253L6.75 35.9137ZM6.05 35.8563L3.64064 33.3177C3.77245 33.1926 4.05154 32.9636 4.49316 32.8014C4.97019 32.6261 5.52578 32.5716 6.08365 32.6912L5.35 36.1135L4.61635 39.5357C6.35115 39.9076 7.70853 39.1076 8.45936 38.395L6.05 35.8563ZM5.35 36.1135L6.08365 32.6912C5.52908 32.5724 4.95963 32.5315 4.3854 32.575L4.65 36.065L4.9146 39.555C4.80704 39.5631 4.70425 39.5546 4.61635 39.5357L5.35 36.1135ZM4.65 36.065L4.3854 32.575C4.41352 32.5729 4.44093 32.5742 4.46282 32.5775L3.95 36.0397L3.43718 39.5019C3.92574 39.5743 4.41981 39.5925 4.9146 39.555L4.65 36.065ZM3.95 36.0397L4.46282 32.5775C4.33064 32.5579 4.19128 32.5385 4.06326 32.5242C4.00171 32.5173 3.9094 32.5078 3.80519 32.5015C3.79336 32.5008 3.45338 32.4729 3.0516 32.5307L3.55 35.995L4.0484 39.4594C3.91411 39.4787 3.80438 39.4863 3.73556 39.4898C3.66274 39.4935 3.60233 39.4942 3.55975 39.4942C3.47698 39.494 3.41357 39.4906 3.38231 39.4887C3.34737 39.4866 3.32174 39.4844 3.30915 39.4832C3.29563 39.482 3.28767 39.4811 3.28674 39.481C3.28577 39.4809 3.29754 39.4822 3.32602 39.4861C3.35339 39.4898 3.39001 39.4949 3.43718 39.5019L3.95 36.0397ZM3.55 35.995L3.05159 39.4594L3.10159 39.4666L3.6 36.0022L4.09841 32.5379L4.04841 32.5307L3.55 35.995ZM3.6 36.0022V32.5022H3.5V36.0022V39.5022H3.6V36.0022Z" fill="#6384AF"/>
</g>
</svg>
