<svg preserveAspectRatio="none" overflow="visible" style="display: block;" width="1495" height="918.127" viewBox="0 0 1495 918.127" fill="none" xmlns="http://www.w3.org/2000/svg">
<g id="Vector" filter="url(#filter0_d_0_13)">
<path d="M356.089 29.5V739.576C356.089 751.727 365.939 761.576 378.089 761.576H1216.98C1229.13 761.576 1238.98 751.727 1238.98 739.576V82.6268C1238.98 70.4765 1229.19 60.6268 1217.04 60.6268H701.983C675.19 60.6268 658.168 37.5388 649.679 21.8033C645.211 13.5237 636.859 7.5 627.451 7.5H378.089C365.939 7.5 356.089 17.3497 356.089 29.5Z" fill="#799C72"/>
<path d="M6.5 82.6268C6.5 70.4765 16.3497 60.6268 28.5 60.6268H1464.5C1476.65 60.6268 1486.5 70.4765 1486.5 82.6268V888.627C1486.5 900.777 1476.65 910.627 1464.5 910.627H28.5C16.3497 910.627 6.5 900.777 6.5 888.627V82.6268Z" fill="#799C72"/>
</g>
<defs>
<filter id="filter0_d_0_13" x="0" y="0" width="1495" height="918.127" filterUnits="userSpaceOnUse" color-interpolation-filters="sRGB">
<feFlood flood-opacity="0" result="BackgroundImageFix"/>
<feColorMatrix in="SourceAlpha" type="matrix" values="0 0 0 0 0 0 0 0 0 0 0 0 0 0 0 0 0 0 127 0" result="hardAlpha"/>
<feOffset dx="1"/>
<feGaussianBlur stdDeviation="3.75"/>
<feComposite in2="hardAlpha" operator="out"/>
<feColorMatrix type="matrix" values="0 0 0 0 0 0 0 0 0 0 0 0 0 0 0 0 0 0 0.25 0"/>
<feBlend mode="normal" in2="BackgroundImageFix" result="effect1_dropShadow_0_13"/>
<feBlend mode="normal" in="SourceGraphic" in2="effect1_dropShadow_0_13" result="shape"/>


</filter>
</defs>
</svg>
